<svg width="26" height="26" viewBox="0 0 26 26" fill="#FEFEFE" xmlns="http://www.w3.org/2000/svg">
<g>
<path id="Icon" d="M22 14.25V12.75H19V14.25H22ZM1.75 21.75H0.25H1.75ZM4.25 5.5V4V5.5ZM11.75 7H13.25V4H11.75V7ZM16.75 0.25H15.25V3.25H16.75V0.25ZM24.25 1.75H25.75V0.25H24.25V1.75ZM22.75 9.25V10.75H25.75V9.25H22.75ZM9.43934 14.4393L8.37868 15.5L10.5 17.6213L11.5607 16.5607L9.43934 14.4393ZM19 14.25V21.75H22V14.25H19ZM18 22.75H4.25V25.75H18V22.75ZM3.25 21.75V8H0.25V21.75H3.25ZM4.25 7H11.75V4H4.25V7ZM16.75 3.25H24.25V0.25H16.75V3.25ZM22.75 1.75V9.25H25.75V1.75H22.75ZM11.5607 16.5607L25.3107 2.81066L23.1893 0.68934L9.43934 14.4393L11.5607 16.5607ZM3.25 8C3.25 7.46676 3.71676 7 4.25 7V4C2.05991 4 0.25 5.80991 0.25 8H3.25ZM4.25 22.75C3.71676 22.75 3.25 22.2832 3.25 21.75H0.25C0.25 23.9401 2.05991 25.75 4.25 25.75V22.75ZM19 21.75C19 22.2832 18.5332 22.75 18 22.75V25.75C20.1901 25.75 22 23.9401 22 21.75H19Z"/>
</g>
<defs>
<clipPath id="clip0_67_831">
<rect width="26" height="26" fill="#FEFEFE"/>
</clipPath>
</defs>
</svg>
