<svg width="500" height="400" viewBox="0 0 500 400" fill="currentColor" xmlns="http://www.w3.org/2000/svg">
<path fill-rule="evenodd" clip-rule="evenodd" d="M233.327 48.8739C245.435 46.7424 253.506 35.2927 251.354 23.3001C249.202 11.3076 237.642 3.31359 225.534 5.44503C196.306 10.5903 170.847 20.3364 148.824 35.5176C146.425 26.3871 142.97 17.861 138.756 10.8162C132.488 0.33692 118.829 -3.12502 108.249 3.08374C97.6689 9.2925 94.1736 22.8208 100.442 33.3001C103.22 37.9443 106.179 45.9335 107.43 55.2482C108.679 64.541 107.974 73.2345 105.418 79.8377C101.445 90.102 105.709 101.697 115.417 107.025C125.126 112.352 137.313 109.786 143.992 101.006C165.955 72.1387 194.043 55.7894 233.327 48.8739ZM316.126 108.667C263.533 92.1108 185.678 116.815 188.709 179.511C189.502 195.921 194.569 214.389 203.493 231.974C206.268 237.442 209.338 242.692 212.671 247.674C239.044 236.791 253.993 216.774 269.002 196.675C270.013 195.321 271.024 193.967 272.039 192.616C287.546 171.964 311.269 150.606 339.086 135.167C343.046 132.969 347.125 130.872 351.31 128.903C340.019 117.733 327.961 112.393 316.126 108.667ZM154.586 255.718C158.511 255.938 162.288 256.039 165.924 256.029C165.163 254.617 164.422 253.202 163.703 251.784C152.366 229.445 145.355 204.983 144.226 181.62C143.104 158.422 147.754 134.573 161.899 115.617C210.815 50.061 289.474 53.9932 329.615 66.6299C354.01 74.3093 374.877 91.3042 391.954 115.285C405.959 112.493 420.534 111.582 435.319 113.28C447.534 114.684 456.289 125.63 454.872 137.729C453.455 149.828 442.403 158.499 430.188 157.096C425.154 156.518 420.049 156.397 414.907 156.694C420.345 169.258 425.115 182.81 429.198 197.188C431.17 204.128 432.806 211.885 434.052 220.231C443.805 207.309 451.676 193.941 457.322 181.139C462.244 169.977 475.37 164.88 486.64 169.755C497.909 174.63 503.055 187.631 498.133 198.793C485.291 227.915 463.77 258.421 435.87 283.695C435.696 285.821 435.498 287.951 435.275 290.083C431.685 324.471 421.447 361.941 399.803 391.029C392.507 400.834 378.567 402.924 368.668 395.698C358.768 388.471 356.657 374.664 363.953 364.859C373.288 352.314 380.171 336.589 384.819 319.348C355.037 334.68 320.887 343.594 283.965 340.944C248.89 338.427 219.171 321.165 196.403 297.78C183.265 299.907 168.588 300.682 152.071 299.757C139.793 299.069 130.402 288.653 131.097 276.492C131.791 264.331 142.308 255.03 154.586 255.718ZM384.819 193.787C381.886 183.459 378.721 174.431 375.369 166.519C370.474 168.612 365.626 171 360.856 173.647C345.01 182.442 330.902 193.632 319.853 204.948C320.4 204.933 320.945 204.917 321.487 204.901C321.835 204.891 322.181 204.88 322.526 204.87L322.527 204.87C342.747 204.267 359.246 203.775 363.771 219.706C369.062 238.335 344.195 266.994 325.387 272.235C307.277 277.281 295.262 260.014 289.671 242.094C277.452 256.614 263.265 270.531 244.724 281.097C257.701 290.174 272.117 295.869 287.183 296.95C325.577 299.706 364.276 288.898 379.373 267.119C394.47 245.34 387.218 202.233 384.819 193.787ZM61.7908 235.415C95.9169 235.415 123.582 208.014 123.582 174.213C123.582 140.412 95.9169 113.011 61.7908 113.011C27.6647 113.011 0 140.412 0 174.213C0 208.014 27.6647 235.415 61.7908 235.415ZM83.4004 312.791C101.847 312.791 116.801 297.98 116.801 279.709C116.801 261.438 101.847 246.627 83.4004 246.627C64.9539 246.627 50 261.438 50 279.709C50 297.98 64.9539 312.791 83.4004 312.791ZM250.972 168.427C254.303 180.152 247.406 192.331 235.567 195.63C223.729 198.928 211.433 192.097 208.102 180.372C204.772 168.646 211.669 156.467 223.507 153.169C235.346 149.87 247.642 156.702 250.972 168.427ZM222.141 334.614C237.469 344.78 241.574 365.328 231.31 380.51C221.046 395.691 200.3 399.757 184.973 389.591C174.986 382.967 170.03 382.453 168.525 382.402C166.877 382.346 164.752 382.638 158.971 385.215C158.331 385.501 157.471 385.909 156.429 386.403C151.05 388.956 140.803 393.817 130.758 396.063C115.732 399.422 99.5594 398.184 82.4078 389.807C65.8634 381.727 59.065 361.892 67.2232 345.506C75.3813 329.119 94.5241 324.476 111.951 330.466C116.078 331.884 124.361 328.134 129.937 325.609C130.507 325.351 131.048 325.106 131.554 324.881C140.427 320.925 153.808 315.697 170.823 316.277C187.981 316.862 204.845 323.142 222.141 334.614Z" fill="currentColor"/>
</svg>
