<svg width="120" height="120" viewBox="0 0 120 120" fill="none" xmlns="http://www.w3.org/2000/svg">
<path d="M70 11.5C70 14.5376 67.5376 17 64.5 17C61 18.5 59 14.5376 59 11.5C59 8.46243 61.4624 6 64.5 6C67.5376 6 69 8.5 70 11.5Z" fill="#6EB6C2"/>
<path d="M23.3027 38.2536C29.6618 35.3204 36.5841 33.0848 43.426 31.6102H44.0885C44.9808 31.2533 46.1489 31.4446 47.1065 31.4446H52.8297C57.3758 31.4446 62.079 31.119 66.6132 31.5366C68.298 31.6918 69.86 32.2918 71.5267 32.512C75.2856 33.0084 78.9807 33.9985 82.5775 35.2079C88.295 37.1304 93.3035 40.1224 98.5969 42.8726C101.224 44.2374 104.169 46.034 106.124 48.283C107.921 50.3508 109.534 52.8152 111.111 55.0551L111.202 55.1848C113.348 58.2335 115.557 61.373 116.484 65.0293C117.181 67.7772 117.122 70.815 116.604 73.5865C116.223 75.6242 115.718 77.8805 114.331 79.503C112.815 81.2766 110.569 83.0639 108.231 83.4779C106.101 83.8551 104.144 83.3262 102.149 82.6498C101.366 82.3846 100.188 82.1046 99.3514 82.3278C98.5409 82.5439 97.9323 84.6413 97.5848 85.2538C96.8598 86.5316 95.8549 87.6501 95.0268 88.8607C93.8133 90.6349 92.7214 92.4683 91.2911 94.087C88.657 97.0683 85.3006 98.9694 81.6481 100.436C78.8777 101.548 76.1763 102.247 73.183 102.331C70.9274 102.395 68.6581 102.331 66.4016 102.331C61.1465 102.331 55.8855 102.543 50.695 101.586C46.4198 100.798 42.3048 99.7016 38.3836 97.7676C35.186 96.1903 32.7165 93.2015 30.3693 90.5813C28.478 88.4701 26.82 86.2799 26.1091 83.4871C25.932 82.7915 26.0274 79.9274 25.0602 79.6778C23.0298 79.1538 21.0782 78.9785 18.9873 78.9785C14.401 78.9785 9.83692 77.8871 5.78345 75.666C3.61775 74.4794 3.01386 73.0637 3.01386 70.6605C3.01386 66.5746 2.85385 62.4382 3.62115 58.4044C4.36565 54.4904 7.59031 51.3312 10.1541 48.5038C14.0752 44.1795 17.9984 40.7002 23.3027 38.2536Z" fill="#798794" stroke="black" stroke-width="2" stroke-linecap="round"/>
<path d="M61.4775 29.7886C61.2139 29.3272 61.1961 28.8937 61.1371 28.3624C60.9764 26.9157 60.7463 25.4746 60.677 24.0194C60.615 22.7167 60.3202 20.8579 60.8703 19.612C61.1876 18.893 62.2665 17.8228 61.3027 17.4313C60.761 17.2112 60.3195 16.6171 60.0974 16.0787C59.3862 14.3555 59.2778 11.6431 59.7293 9.87699C60.3409 7.48467 61.6539 6.27628 64.0723 5.93884C65.1998 5.78151 66.2501 5.63148 67.2468 6.27928C68.2658 6.94166 68.4524 8.53991 68.857 9.60095C69.1877 10.4682 69.7587 11.2347 69.7587 12.1773C69.7587 13.1097 69.7587 14.0421 69.7587 14.9745C69.7587 16.2425 68.1125 16.4496 66.9983 16.6675C65.9361 16.8754 64.8717 16.87 63.7963 16.87" stroke="black" stroke-width="2" stroke-linecap="round"/>
<path d="M47.5659 38.4004C48.1784 39.3714 48.6965 40.0051 49.5534 40.7191" stroke="black" stroke-width="2" stroke-linecap="round"/>
<path d="M71.7466 38.8975C70.5088 39.6522 69.1742 39.8115 67.9373 40.5537" stroke="black" stroke-width="2" stroke-linecap="round"/>
<path d="M57.3376 43.2041C57.7138 43.4977 58.1028 43.7694 58.497 44.0322" stroke="black" stroke-width="2" stroke-linecap="round"/>
<path d="M32.2188 64.5882C31.3914 66.0502 31.0923 68.0332 30.949 69.6673C30.0637 79.7658 32.2189 89 37 96.3603C38.5 99.5 53.3247 102.617 62 102.5C68.4582 102.413 79 103.5 85.4943 98.0257C85.8566 97.4219 86.3652 96.8124 86.9021 96.3603C87.5451 95.8188 87.8396 94.43 88.0339 93.6459C88.2504 92.7717 88.3562 91.766 88.4387 90.8671C88.6748 88.2968 88.9234 85.7741 89.6257 83.2576C90.0396 81.7745 89.8005 80.0508 89.8005 78.5189C89.8005 77.6886 89.8095 76.8698 89.7177 76.0438C89.597 74.9574 89.0824 74.1731 88.8344 73.1454C88.482 71.6855 88.5281 70.1429 88.1627 68.692C87.9102 67.6895 87.5985 66.6881 87.3161 65.6923C86.7006 63.5218 85.7525 61.3969 84.4269 59.5919C83.1358 57.8337 82.1911 55.9545 80.3968 54.614C79.041 53.6011 77.3435 52.8096 75.7961 52.1296C72.4976 50.6803 69.1676 50.3262 65.6011 50.3262C64.5864 50.3262 63.6216 50.3989 62.6199 50.6022C60.4383 51.045 58.2718 51.317 56.0664 51.5938L55.9029 51.6144C52.7517 52.0101 49.695 52.6498 46.7016 53.7215C45.0564 54.3105 43.0642 54.5536 41.5673 55.4973C40.548 56.1399 39.7102 56.9181 38.6137 57.4664C37.3435 58.1015 36.4049 59.08 35.5497 60.19C34.4406 61.6294 33.1166 63.0016 32.2188 64.5882Z" fill="#ECF4FF" stroke="black" stroke-width="2" stroke-linecap="round"/>
<path d="M52.5345 104.153C52.5345 105.952 52.7001 107.753 52.7001 109.545C52.7001 109.902 52.8263 110.55 52.5161 110.815C51.5714 111.622 49.5011 111.32 48.3387 111.266C47.5764 111.23 46.8435 111.11 46.0752 111.11" stroke="black" stroke-width="2" stroke-linecap="round"/>
<path d="M59.4916 102.995C59.4916 104.806 59.4556 106.622 59.5008 108.433C59.5277 109.506 59.9885 110.513 59.9885 111.552C59.9885 111.927 59.771 112.828 60.283 112.895C61.9632 113.116 63.7589 112.932 65.4541 112.932" stroke="black" stroke-width="2" stroke-linecap="round"/>
</svg>
