<svg width="22" height="24" viewBox="0 0 22 24" fill="none" xmlns="http://www.w3.org/2000/svg">
<path d="M1.8092 6.4171C1.39473 5.23288 1.60252 3.26082 2.56905 2.37206C4.7075 0.405664 7.64135 1.17643 10.2728 1.17643C12.4549 1.17643 19.8112 0.717653 20.213 4.09288C20.3671 5.38754 19.7728 7.5 17.2728 8C14.7728 8.5 10.6 8.51784 8.71482 8.51784C6.97831 8.51784 2.49184 8.36748 1.8092 6.4171Z" stroke="currentColor" stroke-width="2" stroke-linecap="round"/>
<path d="M8.77279 8.5C8.77279 8.5 7.27277 8.5 5.27279 8.5C3.27281 8.5 1.77277 10 1.77277 12.5C1.77277 15 4.27277 14.9035 5.96614 14.9035C7.6595 14.9035 8.70436 15.0203 8.77084 14.9538" stroke="currentColor" stroke-width="2" stroke-linecap="round"/>
<path d="M7.7652 15.055C5.77278 15 3.09619 15.6914 2.17813 16.5859C0.647974 18.0768 0.535081 20.5297 2.27278 22C3.05128 22.6588 4.17503 23 5.27278 23C6.55375 23 8.38476 22.3969 8.77278 21C9.25796 19.2534 9.18248 15.8508 9.27277 14C9.47607 9.83232 9.20822 6.56767 10.2728 2.5" stroke="currentColor" stroke-width="2" stroke-linecap="round"/>
<path d="M14.5592 16.1738C14.0108 16.1649 13.4537 16.1484 12.9179 16.02C11.2082 15.6104 10.4132 14.8522 9.97664 13.1427C9.76196 12.3021 9.85513 10.9933 10.2728 10.225C10.7472 9.35227 12.2235 8.63415 13.2278 8.62529C14.8821 8.61069 16.6631 8.57045 17.579 10.225C17.7367 10.5099 17.8418 10.7905 17.8833 11.1153C17.9615 11.7272 17.9382 12.3902 17.8328 12.9968C17.5261 14.7603 16.4854 16.2052 14.5592 16.1738Z" stroke="currentColor" stroke-width="2" stroke-linecap="round"/>
</svg>
