<svg width="24" height="24" viewBox="0 0 24 24" fill="none" xmlns="http://www.w3.org/2000/svg">
<path d="M7 23C7 20.9686 7.44235 18.3511 8.07619 16.4063C8.07619 15.685 8.01352 15.6685 7.5 15.463C6.02441 14.8726 3.95636 13.1963 3.95636 11C3.95636 9.25856 4.22005 8.58865 4.95634 7C5.41982 6 5.76434 6.10485 5.68803 5.26157C5.65957 4.94701 5.18916 1.31262 7.18916 1.31262C9.18916 1.31262 9.9564 4.5 10.9564 4.5C12.4564 4 16 4 17 4.5C18.5 4.5 20.5266 1.5 21.9317 2C23.3369 2.5 22.5956 4.68517 22 6.5C21.5614 7.83643 22.4565 8.77987 22.7927 10.0134C23.1228 11.2249 23.0596 12.4628 22.5956 13.6447C21.9216 15.3615 20 16 18.8958 16.323C17.7917 16.6461 17.2547 16.8514 17.2393 17.2614C17.2237 17.6758 17.3565 18.0181 17.4819 18.3855C17.933 19.7076 18.6039 21.6456 18.6039 22.9993M7.14461 20.7653C5.91197 21.4657 3.45636 22 3 20.5C2.54364 19 4.5 18 4.1289 16.7004C3.75779 15.4009 2.00006 15.627 1 15.5" stroke="currentColor" stroke-width="2" stroke-linecap="round" stroke-linejoin="round"/>
</svg>
